<svg width="707" height="77" viewBox="0 0 707 77" fill="none" xmlns="http://www.w3.org/2000/svg">
<g clip-path="url(#clip0_37_14)">
<path d="M0 59.2128V16.5046H10.9508V26.9079L9.7775 25.187C10.4033 21.9018 11.9155 19.4769 14.3143 17.9125C16.7131 16.3481 19.5811 15.5659 22.9185 15.5659C26.4645 15.5659 29.5672 16.4785 32.2267 18.3036C34.9384 20.0766 36.6331 22.4754 37.311 25.4999L33.9476 25.8128C35.3555 22.3189 37.3632 19.7377 39.9705 18.069C42.5779 16.4003 45.6284 15.5659 49.1223 15.5659C52.1989 15.5659 54.9106 16.2438 57.2572 17.5997C59.6559 18.9555 61.5332 20.8588 62.889 23.3097C64.2449 25.7085 64.9228 28.5244 64.9228 31.7575V59.2128H53.1897V34.2606C53.1897 32.5919 52.8769 31.1578 52.2511 29.9585C51.6775 28.7591 50.8431 27.8204 49.748 27.1425C48.653 26.4646 47.3232 26.1257 45.7588 26.1257C44.2466 26.1257 42.9168 26.4646 41.7696 27.1425C40.6745 27.8204 39.8141 28.7591 39.1883 29.9585C38.6147 31.1578 38.3279 32.5919 38.3279 34.2606V59.2128H26.5949V34.2606C26.5949 32.5919 26.282 31.1578 25.6562 29.9585C25.0826 28.7591 24.2483 27.8204 23.1532 27.1425C22.0581 26.4646 20.7284 26.1257 19.1639 26.1257C17.6517 26.1257 16.322 26.4646 15.1747 27.1425C14.0796 27.8204 13.2192 28.7591 12.5935 29.9585C12.0198 31.1578 11.733 32.5919 11.733 34.2606V59.2128H0ZM93.8416 60.1514C89.6177 60.1514 85.7589 59.1867 82.265 57.2573C78.8233 55.3279 76.0596 52.6945 73.9737 49.3571C71.94 45.9675 70.9231 42.1347 70.9231 37.8587C70.9231 33.5305 71.94 29.6977 73.9737 26.3603C76.0596 23.0229 78.8233 20.3895 82.265 18.4601C85.7589 16.5307 89.6177 15.5659 93.8416 15.5659C94.0977 15.5659 183.826 15.5693 184.079 15.5764C188.003 15.6863 191.581 16.6475 194.813 18.46C198.255 20.3894 200.993 23.0228 203.026 26.3602C205.112 29.6976 206.155 33.5304 206.155 37.8586C206.155 42.1346 205.112 45.9674 203.026 49.357C200.993 52.6944 198.255 55.3278 194.813 57.2572C191.581 59.0696 188.003 60.0308 184.079 60.1406C183.826 60.1477 94.0977 60.1514 93.8416 60.1514ZM93.8416 49.5917C94.1004 49.5917 183.829 49.5843 184.079 49.5698C185.897 49.4644 187.494 48.9762 188.869 48.1054C190.485 47.1146 191.737 45.7328 192.623 43.9598C193.562 42.1868 194.031 40.153 194.031 37.8586C194.031 35.5641 193.562 33.5565 192.623 31.8356C191.737 30.0626 190.485 28.6808 188.869 27.69C187.494 26.7732 185.897 26.2595 184.079 26.1485C183.829 26.1332 94.1004 26.1257 93.8416 26.1257C91.7036 26.1257 89.8263 26.6471 88.2098 27.6901C86.5932 28.6809 85.3156 30.0627 84.377 31.8357C83.4905 33.5566 83.0472 35.5642 83.0472 37.8587C83.0472 40.1531 83.4905 42.1869 84.377 43.9599C85.3156 45.7329 86.5932 47.1147 88.2098 48.1055C89.8263 49.0963 91.7036 49.5917 93.8416 49.5917ZM233.17 60.1513C228.998 60.1513 225.27 59.1606 221.984 57.179C218.699 55.1974 216.092 52.5118 214.162 49.1223C212.285 45.7328 211.346 41.9782 211.346 37.8586C211.346 33.6868 212.311 29.9323 214.241 26.5949C216.17 23.2053 218.777 20.5198 222.063 18.5382C225.348 16.5566 229.024 15.5658 233.092 15.5658C236.22 15.5658 238.984 16.1655 241.383 17.3649C243.834 18.5121 245.763 20.1548 247.171 22.2928L245.372 24.6394V0H257.105V59.2127H246.154V51.3907L247.25 53.8155C245.789 55.9014 243.808 57.4919 241.305 58.5869C238.802 59.6299 236.09 60.1513 233.17 60.1513ZM234.578 49.5916C236.716 49.5916 238.593 49.0962 240.21 48.1054C241.826 47.1146 243.078 45.7328 243.964 43.9598C244.903 42.1868 245.372 40.153 245.372 37.8586C245.372 35.5641 244.903 33.5304 243.964 31.7574C243.078 29.9844 241.826 28.6025 240.21 27.6117C238.593 26.621 236.716 26.1256 234.578 26.1256C232.44 26.1256 230.51 26.647 228.79 27.69C227.121 28.6808 225.817 30.0626 224.879 31.8356C223.94 33.5565 223.471 35.5641 223.471 37.8586C223.471 40.153 223.94 42.1868 224.879 43.9598C225.817 45.7328 227.121 47.1146 228.79 48.1054C230.51 49.0962 232.44 49.5916 234.578 49.5916ZM286.27 60.1513C281.733 60.1513 277.796 59.1606 274.459 57.179C271.121 55.1453 268.54 52.4336 266.715 49.0441C264.89 45.6545 263.977 41.9 263.977 37.7804C263.977 33.5043 264.916 29.6976 266.793 26.3602C268.722 23.0228 271.304 20.3894 274.537 18.46C277.77 16.5306 281.42 15.5658 285.488 15.5658C288.877 15.5658 291.876 16.1134 294.483 17.2085C297.09 18.2514 299.28 19.7376 301.053 21.667C302.879 23.5964 304.26 25.8388 305.199 28.3939C306.138 30.897 306.607 33.6347 306.607 36.6071C306.607 37.4414 306.555 38.2758 306.451 39.1101C306.398 39.8923 306.268 40.5702 306.06 41.1438H274.067V32.5396H299.411L293.857 36.6071C294.379 34.3648 294.353 32.3832 293.779 30.6623C293.205 28.8893 292.188 27.5075 290.728 26.5167C289.32 25.4737 287.573 24.9523 285.488 24.9523C283.454 24.9523 281.707 25.4477 280.247 26.4384C278.787 27.4292 277.692 28.8893 276.962 30.8188C276.232 32.7482 275.945 35.0948 276.101 37.8586C275.893 40.2573 276.179 42.3693 276.962 44.1944C277.744 46.0196 278.943 47.4536 280.56 48.4965C282.176 49.4873 284.132 49.9827 286.426 49.9827C288.512 49.9827 290.285 49.5655 291.745 48.7312C293.257 47.8968 294.431 46.7496 295.265 45.2895L304.652 49.7481C303.817 51.8339 302.487 53.6591 300.662 55.2235C298.889 56.7879 296.777 58.0133 294.326 58.8998C291.876 59.7342 289.19 60.1513 286.27 60.1513ZM313.516 59.2127V16.5045H324.467V26.7513L323.685 25.2651C324.623 21.667 326.162 19.2422 328.3 17.9907C330.49 16.687 333.071 16.0352 336.044 16.0352H338.547V26.2038H334.87C332.002 26.2038 329.682 27.0903 327.909 28.8633C326.136 30.5841 325.249 33.035 325.249 36.216V59.2127H313.516ZM343.689 59.2127V16.5045H354.64V24.9523L354.014 23.075C355.005 20.5198 356.595 18.6425 358.785 17.4431C361.028 16.1916 363.635 15.5658 366.607 15.5658C369.841 15.5658 372.656 16.2437 375.055 17.5996C377.506 18.9554 379.409 20.8587 380.765 23.3096C382.121 25.7084 382.799 28.5243 382.799 31.7574V59.2127H371.066V34.2605C371.066 32.5918 370.727 31.1577 370.049 29.9584C369.423 28.759 368.511 27.8203 367.311 27.1424C366.164 26.4645 364.808 26.1256 363.244 26.1256C361.732 26.1256 360.376 26.4645 359.177 27.1424C357.977 27.8203 357.038 28.759 356.361 29.9584C355.735 31.1577 355.422 32.5918 355.422 34.2605V59.2127H343.689ZM403.458 47.6626C404.935 49.0339 405.673 50.7743 405.673 52.8839C405.673 54.9935 404.935 56.7867 403.458 58.2634C402.087 59.6346 400.346 60.3202 398.237 60.3202C396.127 60.3202 394.334 59.6346 392.857 58.2634C391.38 56.7867 390.642 54.9935 390.642 52.8839C390.642 50.7743 391.38 49.0339 392.857 47.6626C394.334 46.1859 396.127 45.4476 398.237 45.4476C400.346 45.4476 402.087 46.1859 403.458 47.6626ZM434.566 60.1513C430.394 60.1513 426.666 59.1606 423.38 57.179C420.095 55.1974 417.488 52.5118 415.558 49.1223C413.681 45.7328 412.743 41.9782 412.743 37.8586C412.743 33.6868 413.707 29.9323 415.637 26.5949C417.566 23.2053 420.173 20.5198 423.459 18.5382C426.744 16.5566 430.42 15.5658 434.488 15.5658C437.617 15.5658 440.38 16.1655 442.779 17.3649C445.23 18.5121 447.159 20.1548 448.567 22.2928L446.768 24.6394V0H458.501V59.2127H447.551V51.3907L448.646 53.8155C447.185 55.9014 445.204 57.4919 442.701 58.5869C440.198 59.6299 437.486 60.1513 434.566 60.1513ZM435.974 49.5916C438.112 49.5916 439.989 49.0962 441.606 48.1054C443.222 47.1146 444.474 45.7328 445.36 43.9598C446.299 42.1868 446.768 40.153 446.768 37.8586C446.768 35.5641 446.299 33.5304 445.36 31.7574C444.474 29.9844 443.222 28.6025 441.606 27.6117C439.989 26.621 438.112 26.1256 435.974 26.1256C433.836 26.1256 431.906 26.647 430.186 27.69C428.517 28.6808 427.213 30.0626 426.275 31.8356C425.336 33.5565 424.867 35.5641 424.867 37.8586C424.867 40.153 425.336 42.1868 426.275 43.9598C427.213 45.7328 428.517 47.1146 430.186 48.1054C431.906 49.0962 433.836 49.5916 435.974 49.5916ZM487.666 60.1513C483.129 60.1513 479.192 59.1606 475.855 57.179C472.517 55.1453 469.936 52.4336 468.111 49.0441C466.286 45.6545 465.373 41.9 465.373 37.7804C465.373 33.5043 466.312 29.6976 468.189 26.3602C470.118 23.0228 472.7 20.3894 475.933 18.46C479.166 16.5306 482.816 15.5658 486.884 15.5658C490.273 15.5658 493.272 16.1134 495.879 17.2085C498.486 18.2514 500.677 19.7376 502.449 21.667C504.275 23.5964 505.657 25.8388 506.595 28.3939C507.534 30.897 508.003 33.6347 508.003 36.6071C508.003 37.4414 507.951 38.2758 507.847 39.1101C507.795 39.8923 507.664 40.5702 507.456 41.1438H475.464V32.5396H500.807L495.253 36.6071C495.775 34.3648 495.749 32.3832 495.175 30.6623C494.601 28.8893 493.585 27.5075 492.124 26.5167C490.716 25.4737 488.97 24.9523 486.884 24.9523C484.85 24.9523 483.103 25.4477 481.643 26.4384C480.183 27.4292 479.088 28.8893 478.358 30.8188C477.628 32.7482 477.341 35.0948 477.497 37.8586C477.289 40.2573 477.575 42.3693 478.358 44.1944C479.14 46.0196 480.339 47.4536 481.956 48.4965C483.572 49.4873 485.528 49.9827 487.822 49.9827C489.908 49.9827 491.681 49.5655 493.141 48.7312C494.654 47.8968 495.827 46.7496 496.661 45.2895L506.048 49.7481C505.213 51.8339 503.884 53.6591 502.058 55.2235C500.285 56.7879 498.173 58.0133 495.723 58.8998C493.272 59.7342 490.586 60.1513 487.666 60.1513ZM531.651 60.1513C526.958 60.1513 522.865 59.0563 519.371 56.8661C515.929 54.6238 513.582 51.6253 512.331 47.8708L520.935 43.8033C522.03 46.0978 523.516 47.8968 525.394 49.2005C527.271 50.5042 529.357 51.156 531.651 51.156C533.32 51.156 534.598 50.8171 535.484 50.1392C536.371 49.4612 536.814 48.5226 536.814 47.3232C536.814 46.6975 536.657 46.176 536.345 45.7588C536.032 45.2895 535.562 44.8723 534.937 44.5073C534.311 44.1423 533.529 43.8294 532.59 43.5687L525.315 41.5349C521.822 40.5441 519.136 38.9537 517.259 36.7635C515.381 34.5212 514.443 31.8878 514.443 28.8633C514.443 26.2038 515.121 23.8832 516.477 21.9017C517.832 19.9201 519.736 18.3818 522.187 17.2867C524.638 16.1395 527.453 15.5658 530.634 15.5658C534.806 15.5658 538.456 16.5566 541.585 18.5382C544.766 20.4676 547.009 23.2053 548.312 26.7513L539.63 30.8188C539.004 29.0458 537.857 27.6378 536.188 26.5949C534.572 25.4998 532.72 24.9523 530.634 24.9523C529.122 24.9523 527.923 25.2651 527.036 25.8909C526.202 26.5167 525.785 27.3771 525.785 28.4722C525.785 29.0458 525.941 29.5672 526.254 30.0366C526.567 30.5059 527.062 30.9231 527.74 31.2881C528.47 31.6531 529.357 31.9921 530.4 32.305L537.205 34.3387C540.751 35.3816 543.463 36.9721 545.34 39.1101C547.217 41.196 548.156 43.7772 548.156 46.8539C548.156 49.5134 547.452 51.8339 546.044 53.8155C544.688 55.7971 542.785 57.3615 540.334 58.5087C537.883 59.6038 534.989 60.1513 531.651 60.1513ZM555.168 59.2127V16.5045H566.901V59.2127H555.168ZM555.168 12.6717V0.938642H566.901V12.6717H555.168ZM596.45 76.4211C593.165 76.4211 590.114 75.8736 587.298 74.7785C584.482 73.6834 582.057 72.1451 580.024 70.1635C578.042 68.2341 576.608 65.9396 575.722 63.2801L586.594 59.4474C587.168 61.4289 588.341 62.9933 590.114 64.1406C591.887 65.2878 593.999 65.8614 596.45 65.8614C598.379 65.8614 600.048 65.4964 601.456 64.7663C602.865 64.0884 603.933 63.0716 604.663 61.7157C605.445 60.3599 605.836 58.7695 605.836 56.9443V47.1668L608.105 49.9827C606.645 52.3815 604.767 54.1805 602.473 55.3799C600.178 56.5271 597.493 57.1008 594.416 57.1008C590.453 57.1008 586.907 56.2143 583.778 54.4413C580.65 52.6161 578.199 50.1392 576.426 47.0104C574.653 43.8294 573.766 40.2313 573.766 36.216C573.766 32.2007 574.653 28.6547 576.426 25.578C578.199 22.4492 580.623 19.9983 583.7 18.2253C586.777 16.4523 590.271 15.5658 594.182 15.5658C597.258 15.5658 599.944 16.1916 602.238 17.4431C604.533 18.6425 606.488 20.4937 608.105 22.9968L606.619 25.8127V16.5045H617.569V56.9443C617.569 60.6989 616.657 64.0363 614.832 66.9565C613.007 69.9289 610.505 72.2494 607.323 73.9181C604.194 75.5868 600.57 76.4211 596.45 76.4211ZM596.059 46.4628C598.04 46.4628 599.761 46.0456 601.221 45.2113C602.682 44.3769 603.803 43.2036 604.585 41.6914C605.419 40.1791 605.836 38.4061 605.836 36.3724C605.836 34.3387 605.419 32.5657 604.585 31.0534C603.751 29.489 602.604 28.2897 601.143 27.4553C599.683 26.5688 597.988 26.1256 596.059 26.1256C594.077 26.1256 592.304 26.5688 590.74 27.4553C589.228 28.2897 588.028 29.489 587.142 31.0534C586.307 32.5657 585.89 34.3387 585.89 36.3724C585.89 38.354 586.307 40.1009 587.142 41.6132C588.028 43.1254 589.228 44.3248 590.74 45.2113C592.304 46.0456 594.077 46.4628 596.059 46.4628ZM626.208 59.2127V16.5045H637.159V24.9523L636.533 23.075C637.524 20.5198 639.114 18.6425 641.304 17.4431C643.547 16.1916 646.154 15.5658 649.126 15.5658C652.36 15.5658 655.175 16.2437 657.574 17.5996C660.025 18.9554 661.928 20.8587 663.284 23.3096C664.641 25.7084 665.318 28.5243 665.318 31.7574V59.2127H653.585V34.2605C653.585 32.5918 653.246 31.1577 652.568 29.9584C651.943 28.759 651.03 27.8203 649.83 27.1424C648.683 26.4645 647.328 26.1256 645.763 26.1256C644.251 26.1256 642.896 26.4645 641.695 27.1424C640.497 27.8203 639.557 28.759 638.88 29.9584C638.255 31.1577 637.941 32.5918 637.941 34.2605V59.2127H626.208ZM689.772 60.1513C685.079 60.1513 680.985 59.0563 677.492 56.8661C674.05 54.6238 671.703 51.6253 670.452 47.8708L679.056 43.8033C680.151 46.0978 681.637 47.8968 683.515 49.2005C685.392 50.5042 687.478 51.156 689.772 51.156C691.441 51.156 692.719 50.8171 693.605 50.1392C694.491 49.4612 694.935 48.5226 694.935 47.3232C694.935 46.6975 694.778 46.176 694.465 45.7588C694.153 45.2895 693.683 44.8723 693.057 44.5073C692.432 44.1423 691.649 43.8294 690.711 43.5687L683.436 41.5349C679.943 40.5441 677.258 38.9537 675.38 36.7635C673.503 34.5212 672.564 31.8878 672.564 28.8633C672.564 26.2038 673.242 23.8832 674.597 21.9017C675.953 19.9201 677.857 18.3818 680.308 17.2867C682.758 16.1395 685.574 15.5658 688.755 15.5658C692.927 15.5658 696.577 16.5566 699.706 18.5382C702.888 20.4676 705.129 23.2053 706.433 26.7513L697.751 30.8188C697.125 29.0458 695.978 27.6378 694.309 26.5949C692.692 25.4998 690.841 24.9523 688.755 24.9523C687.243 24.9523 686.044 25.2651 685.157 25.8909C684.323 26.5167 683.906 27.3771 683.906 28.4722C683.906 29.0458 684.062 29.5672 684.375 30.0366C684.688 30.5059 685.183 30.9231 685.861 31.2881C686.591 31.6531 687.478 31.9921 688.521 32.305L695.326 34.3387C698.872 35.3816 701.583 36.9721 703.461 39.1101C705.339 41.196 706.277 43.7772 706.277 46.8539C706.277 49.5134 705.573 51.8339 704.165 53.8155C702.809 55.7971 700.906 57.3615 698.455 58.5087C696.004 59.6038 693.11 60.1513 689.772 60.1513Z" fill="white"/>
</g>
<defs>
<clipPath id="clip0_37_14">
<rect width="706.433" height="76.4211" fill="white"/>
</clipPath>
</defs>
</svg>
